<mxfile host="app.diagrams.net" modified="2023-11-28T20:20:37.756Z" agent="Mozilla/5.0 (Windows NT 10.0; Win64; x64; rv:120.0) Gecko/20100101 Firefox/120.0" etag="MP3YhCCACnKtPa3QyBJi" version="22.1.4" type="google">
  <diagram name="Page-1" id="821M0RyQgXoPKNFaXJW5">
    <mxGraphModel grid="1" page="1" gridSize="10" guides="1" tooltips="1" connect="1" arrows="1" fold="1" pageScale="1" pageWidth="850" pageHeight="1100" math="0" shadow="0">
      <root>
        <mxCell id="0" />
        <mxCell id="1" parent="0" />
        <mxCell id="UMcOcCKrK3EuyzEz2Q15-1" value="Actor" style="shape=umlActor;verticalLabelPosition=bottom;verticalAlign=top;html=1;outlineConnect=0;fontColor=default;" vertex="1" parent="1">
          <mxGeometry x="45" y="410" width="30" height="60" as="geometry" />
        </mxCell>
        <mxCell id="UMcOcCKrK3EuyzEz2Q15-3" value="" style="whiteSpace=wrap;html=1;aspect=fixed;" vertex="1" parent="1">
          <mxGeometry x="120" y="190" width="590" height="590" as="geometry" />
        </mxCell>
        <mxCell id="UMcOcCKrK3EuyzEz2Q15-4" value="Work Request System" style="text;html=1;strokeColor=none;fillColor=none;align=center;verticalAlign=middle;whiteSpace=wrap;rounded=0;" vertex="1" parent="1">
          <mxGeometry x="330" y="190" width="160" height="30" as="geometry" />
        </mxCell>
        <mxCell id="UMcOcCKrK3EuyzEz2Q15-5" value="" style="ellipse;whiteSpace=wrap;html=1;" vertex="1" parent="1">
          <mxGeometry x="140" y="480" width="140" height="100" as="geometry" />
        </mxCell>
        <mxCell id="UMcOcCKrK3EuyzEz2Q15-6" value="Submit Request" style="text;html=1;strokeColor=none;fillColor=none;align=center;verticalAlign=middle;whiteSpace=wrap;rounded=0;" vertex="1" parent="1">
          <mxGeometry x="165" y="507.5" width="90" height="45" as="geometry" />
        </mxCell>
        <mxCell id="UMcOcCKrK3EuyzEz2Q15-7" value="Customer" style="text;html=1;strokeColor=none;fillColor=none;align=center;verticalAlign=middle;whiteSpace=wrap;rounded=0;" vertex="1" parent="1">
          <mxGeometry x="30" y="377.5" width="60" height="30" as="geometry" />
        </mxCell>
        <mxCell id="UMcOcCKrK3EuyzEz2Q15-8" value="" style="ellipse;whiteSpace=wrap;html=1;" vertex="1" parent="1">
          <mxGeometry x="330.5" y="360" width="145" height="100" as="geometry" />
        </mxCell>
        <mxCell id="UMcOcCKrK3EuyzEz2Q15-9" value="View Work Requests" style="text;html=1;strokeColor=none;fillColor=none;align=center;verticalAlign=middle;whiteSpace=wrap;rounded=0;" vertex="1" parent="1">
          <mxGeometry x="355.5" y="387.5" width="95" height="45" as="geometry" />
        </mxCell>
        <mxCell id="UMcOcCKrK3EuyzEz2Q15-23" value="" style="endArrow=none;html=1;rounded=0;" edge="1" parent="1" source="UMcOcCKrK3EuyzEz2Q15-1" target="UMcOcCKrK3EuyzEz2Q15-5">
          <mxGeometry width="50" height="50" relative="1" as="geometry">
            <mxPoint x="300" y="460" as="sourcePoint" />
            <mxPoint x="350" y="410" as="targetPoint" />
          </mxGeometry>
        </mxCell>
        <mxCell id="UMcOcCKrK3EuyzEz2Q15-24" value="" style="endArrow=none;html=1;rounded=0;entryX=0.006;entryY=0.561;entryDx=0;entryDy=0;entryPerimeter=0;" edge="1" parent="1" source="UMcOcCKrK3EuyzEz2Q15-1" target="UMcOcCKrK3EuyzEz2Q15-8">
          <mxGeometry width="50" height="50" relative="1" as="geometry">
            <mxPoint x="300" y="460" as="sourcePoint" />
            <mxPoint x="350" y="410" as="targetPoint" />
          </mxGeometry>
        </mxCell>
        <mxCell id="liWrBR8Kp_9Ju5rL2Qop-1" value="Actor" style="shape=umlActor;verticalLabelPosition=bottom;verticalAlign=top;html=1;outlineConnect=0;" vertex="1" parent="1">
          <mxGeometry x="750" y="260" width="30" height="60" as="geometry" />
        </mxCell>
        <mxCell id="liWrBR8Kp_9Ju5rL2Qop-2" value="Actor" style="shape=umlActor;verticalLabelPosition=bottom;verticalAlign=top;html=1;outlineConnect=0;" vertex="1" parent="1">
          <mxGeometry x="750" y="580" width="30" height="60" as="geometry" />
        </mxCell>
        <mxCell id="liWrBR8Kp_9Ju5rL2Qop-3" value="Boss" style="text;html=1;strokeColor=none;fillColor=none;align=center;verticalAlign=middle;whiteSpace=wrap;rounded=0;" vertex="1" parent="1">
          <mxGeometry x="735" y="220" width="60" height="30" as="geometry" />
        </mxCell>
        <mxCell id="liWrBR8Kp_9Ju5rL2Qop-4" value="Employee" style="text;html=1;strokeColor=none;fillColor=none;align=center;verticalAlign=middle;whiteSpace=wrap;rounded=0;" vertex="1" parent="1">
          <mxGeometry x="735" y="535" width="60" height="30" as="geometry" />
        </mxCell>
        <mxCell id="liWrBR8Kp_9Ju5rL2Qop-5" value="" style="ellipse;whiteSpace=wrap;html=1;" vertex="1" parent="1">
          <mxGeometry x="332.5" y="237.5" width="140" height="92.5" as="geometry" />
        </mxCell>
        <mxCell id="liWrBR8Kp_9Ju5rL2Qop-7" value="" style="ellipse;whiteSpace=wrap;html=1;" vertex="1" parent="1">
          <mxGeometry x="580" y="690" width="120" height="80" as="geometry" />
        </mxCell>
        <mxCell id="liWrBR8Kp_9Ju5rL2Qop-8" value="Work" style="text;html=1;strokeColor=none;fillColor=none;align=center;verticalAlign=middle;whiteSpace=wrap;rounded=0;" vertex="1" parent="1">
          <mxGeometry x="610" y="715" width="60" height="30" as="geometry" />
        </mxCell>
        <mxCell id="liWrBR8Kp_9Ju5rL2Qop-9" value="" style="endArrow=none;html=1;rounded=0;exitX=1;exitY=0.5;exitDx=0;exitDy=0;" edge="1" parent="1" source="UMcOcCKrK3EuyzEz2Q15-8" target="liWrBR8Kp_9Ju5rL2Qop-2">
          <mxGeometry width="50" height="50" relative="1" as="geometry">
            <mxPoint x="400" y="590" as="sourcePoint" />
            <mxPoint x="450" y="540" as="targetPoint" />
          </mxGeometry>
        </mxCell>
        <mxCell id="liWrBR8Kp_9Ju5rL2Qop-10" value="" style="endArrow=none;html=1;rounded=0;exitX=1;exitY=0.5;exitDx=0;exitDy=0;" edge="1" parent="1" source="liWrBR8Kp_9Ju5rL2Qop-7" target="liWrBR8Kp_9Ju5rL2Qop-2">
          <mxGeometry width="50" height="50" relative="1" as="geometry">
            <mxPoint x="590" y="690" as="sourcePoint" />
            <mxPoint x="640" y="640" as="targetPoint" />
          </mxGeometry>
        </mxCell>
        <mxCell id="liWrBR8Kp_9Ju5rL2Qop-11" value="" style="ellipse;whiteSpace=wrap;html=1;" vertex="1" parent="1">
          <mxGeometry x="530" y="200" width="140" height="90" as="geometry" />
        </mxCell>
        <mxCell id="liWrBR8Kp_9Ju5rL2Qop-12" value="assign work" style="text;html=1;strokeColor=none;fillColor=none;align=center;verticalAlign=middle;whiteSpace=wrap;rounded=0;" vertex="1" parent="1">
          <mxGeometry x="570" y="230" width="60" height="30" as="geometry" />
        </mxCell>
        <mxCell id="liWrBR8Kp_9Ju5rL2Qop-13" value="" style="endArrow=none;html=1;rounded=0;exitX=1;exitY=0.5;exitDx=0;exitDy=0;" edge="1" parent="1" source="liWrBR8Kp_9Ju5rL2Qop-11">
          <mxGeometry width="50" height="50" relative="1" as="geometry">
            <mxPoint x="610" y="420" as="sourcePoint" />
            <mxPoint x="740" y="300" as="targetPoint" />
          </mxGeometry>
        </mxCell>
        <mxCell id="liWrBR8Kp_9Ju5rL2Qop-14" value="" style="endArrow=none;html=1;rounded=0;exitX=1;exitY=0.5;exitDx=0;exitDy=0;" edge="1" parent="1" source="UMcOcCKrK3EuyzEz2Q15-8">
          <mxGeometry width="50" height="50" relative="1" as="geometry">
            <mxPoint x="600" y="420" as="sourcePoint" />
            <mxPoint x="740" y="330" as="targetPoint" />
          </mxGeometry>
        </mxCell>
        <mxCell id="liWrBR8Kp_9Ju5rL2Qop-16" value="" style="ellipse;whiteSpace=wrap;html=1;" vertex="1" parent="1">
          <mxGeometry x="334" y="470" width="137" height="90" as="geometry" />
        </mxCell>
        <mxCell id="liWrBR8Kp_9Ju5rL2Qop-17" value="Order Parts" style="text;html=1;strokeColor=none;fillColor=none;align=center;verticalAlign=middle;whiteSpace=wrap;rounded=0;" vertex="1" parent="1">
          <mxGeometry x="366.75" y="500" width="72.5" height="30" as="geometry" />
        </mxCell>
        <mxCell id="liWrBR8Kp_9Ju5rL2Qop-18" value="" style="endArrow=none;html=1;rounded=0;entryX=1;entryY=0.5;entryDx=0;entryDy=0;" edge="1" parent="1" target="liWrBR8Kp_9Ju5rL2Qop-16">
          <mxGeometry width="50" height="50" relative="1" as="geometry">
            <mxPoint x="740" y="600" as="sourcePoint" />
            <mxPoint x="690" y="520" as="targetPoint" />
          </mxGeometry>
        </mxCell>
        <mxCell id="-CT79PJvSh09xC_3GgRH-1" value="Login" style="text;html=1;strokeColor=none;fillColor=none;align=center;verticalAlign=middle;whiteSpace=wrap;rounded=0;" vertex="1" parent="1">
          <mxGeometry x="373" y="269" width="60" height="30" as="geometry" />
        </mxCell>
        <mxCell id="-CT79PJvSh09xC_3GgRH-2" value="" style="endArrow=none;html=1;rounded=0;entryX=0;entryY=0.5;entryDx=0;entryDy=0;" edge="1" parent="1" target="liWrBR8Kp_9Ju5rL2Qop-5">
          <mxGeometry width="50" height="50" relative="1" as="geometry">
            <mxPoint x="80" y="430" as="sourcePoint" />
            <mxPoint x="250" y="280" as="targetPoint" />
          </mxGeometry>
        </mxCell>
        <mxCell id="-CT79PJvSh09xC_3GgRH-3" value="" style="endArrow=none;html=1;rounded=0;exitX=1;exitY=0.5;exitDx=0;exitDy=0;" edge="1" parent="1" source="liWrBR8Kp_9Ju5rL2Qop-5">
          <mxGeometry width="50" height="50" relative="1" as="geometry">
            <mxPoint x="630" y="300" as="sourcePoint" />
            <mxPoint x="740" y="310" as="targetPoint" />
          </mxGeometry>
        </mxCell>
        <mxCell id="-CT79PJvSh09xC_3GgRH-4" value="" style="endArrow=none;html=1;rounded=0;exitX=1;exitY=1;exitDx=0;exitDy=0;" edge="1" parent="1" source="liWrBR8Kp_9Ju5rL2Qop-5">
          <mxGeometry width="50" height="50" relative="1" as="geometry">
            <mxPoint x="470" y="500" as="sourcePoint" />
            <mxPoint x="750" y="590" as="targetPoint" />
          </mxGeometry>
        </mxCell>
        <mxCell id="j2NpIPSiDcP__njucYZe-1" value="" style="ellipse;whiteSpace=wrap;html=1;" vertex="1" parent="1">
          <mxGeometry x="334" y="570" width="136" height="80" as="geometry" />
        </mxCell>
        <mxCell id="j2NpIPSiDcP__njucYZe-2" value="" style="ellipse;whiteSpace=wrap;html=1;" vertex="1" parent="1">
          <mxGeometry x="335.5" y="660" width="140" height="80" as="geometry" />
        </mxCell>
        <mxCell id="j2NpIPSiDcP__njucYZe-3" value="Add tenant" style="text;html=1;strokeColor=none;fillColor=none;align=center;verticalAlign=middle;whiteSpace=wrap;rounded=0;" vertex="1" parent="1">
          <mxGeometry x="373" y="595" width="60" height="30" as="geometry" />
        </mxCell>
        <mxCell id="j2NpIPSiDcP__njucYZe-4" value="Remove tenant" style="text;html=1;strokeColor=none;fillColor=none;align=center;verticalAlign=middle;whiteSpace=wrap;rounded=0;" vertex="1" parent="1">
          <mxGeometry x="376" y="685" width="60" height="30" as="geometry" />
        </mxCell>
        <mxCell id="j2NpIPSiDcP__njucYZe-5" value="" style="endArrow=none;html=1;rounded=0;" edge="1" parent="1" source="j2NpIPSiDcP__njucYZe-1">
          <mxGeometry width="50" height="50" relative="1" as="geometry">
            <mxPoint x="400" y="500" as="sourcePoint" />
            <mxPoint x="730" y="610" as="targetPoint" />
          </mxGeometry>
        </mxCell>
        <mxCell id="j2NpIPSiDcP__njucYZe-6" value="" style="endArrow=none;html=1;rounded=0;exitX=1;exitY=0.5;exitDx=0;exitDy=0;" edge="1" parent="1" source="j2NpIPSiDcP__njucYZe-2">
          <mxGeometry width="50" height="50" relative="1" as="geometry">
            <mxPoint x="510" y="700" as="sourcePoint" />
            <mxPoint x="740" y="620" as="targetPoint" />
          </mxGeometry>
        </mxCell>
      </root>
    </mxGraphModel>
  </diagram>
</mxfile>
